#!OML:ASF H:\Terrain\Patient Classification 1\Takeo\Monday\TakeoMonday.ASF
:FULLY-SPECIFIED
:DEGREES
1
root 15.7962 17.5098 1.67235 -6.52205 -15.7911 -0.142138
lowerback 6.39236 0.706819 -2.34062
upperback 3.36929 0.800257 0.164771
thorax -0.146511 0.365809 1.43127
lowerneck -14.3581 -0.399478 -3.23279
upperneck 0.0366349 -0.0251564 0.400472
head 2.51087 -0.0175559 0.696368
rclavicle 1.50269e-014 7.15625e-015
rhumerus -16.9528 36.0992 -103.888
rradius 67.6962
rwrist -11.658
rhand -38.8015 41.7601
rfingers 7.12502
rthumb -11.8123 12.1133
lclavicle 1.50269e-014 7.15625e-015
lhumerus -18.4774 -19.4587 105.343
lradius 83.2236
lwrist 26.777
lhand -32.7421 18.4673
lfingers 7.12502
lthumb -5.96524 48.3633
rfemur -7.68163 7.02149 17.281
rtibia 30.6199
rfoot -12.77 -10.4468
rtoes -11.3176
lfemur -3.28902 -8.04087 -20.4621
ltibia 32.4606
lfoot -18.0721 6.30987
ltoes -4.5098
2
root 15.8505 17.5207 1.6587 -6.24066 -16.265 -0.7748
lowerback 6.50863 0.694414 -1.87644
upperback 3.3456 0.808277 0.402586
thorax -0.233601 0.374368 1.41335
lowerneck -14.4151 -0.438452 -3.32886
upperneck -0.114194 -0.064063 0.472232
head 2.47121 -0.0334252 0.733701
rclavicle -2.127e-014 -4.47266e-015
rhumerus -16.7278 36.2915 -103.382
rradius 67.7368
rwrist -11.8281
rhand -38.632 42.0322
rfingers 7.12502
rthumb -11.6488 12.376
lclavicle -2.127e-014 -4.47266e-015
lhumerus -18.4696 -19.6592 105.425
lradius 83.2251
lwrist 26.7962
lhand -32.2203 19.4814
lfingers 7.12502
lthumb -5.46142 49.391
rfemur -7.85217 7.23346 17.7736
rtibia 30.3836
rfoot -12.6437 -10.2151
rtoes -11.2566
lfemur -3.593 -7.48902 -19.8341
ltibia 32.6482
lfoot -18.0351 6.10455
ltoes -3.79891
3
root 15.9049 17.5366 1.63891 -5.80548 -16.5481 -0.500562
lowerback 6.20011 0.666904 -2.3465
upperback 3.24313 0.752312 0.367652
thorax -0.170467 0.341797 1.64746
lowerneck -14.4456 -0.420073 -3.14293
upperneck -0.187177 -0.0660594 0.355335
head 2.45047 -0.0378708 0.662344
rclavicle -3.40295e-014 -3.18055e-015
rhumerus -16.6368 36.3165 -102.969
rradius 67.9024
rwrist -11.9284
rhand -38.1952 42.0671
rfingers 7.12502
rthumb -11.2275 12.3875
lclavicle -3.40295e-014 -3.18055e-015
lhumerus -18.2881 -20.0004 105.333
lradius 83.1397
lwrist 26.945
lhand -31.4024 20.6386
lfingers 7.12502
lthumb -4.67172 50.5671
rfemur -8.6029 7.1006 17.1926
rtibia 30.5587
rfoot -12.7362 -9.65777
rtoes -10.6942
lfemur -4.08723 -6.87923 -20.1406
ltibia 32.3225
lfoot -17.6074 6.07199
ltoes -4.48579
4
root 15.9561 17.5482 1.62139 -5.65105 -17.0359 0.106349
lowerback 5.88194 0.674675 -3.16186
upperback 3.3693 0.730553 0.228388
thorax 0.131123 0.3161 1.96706
lowerneck -14.6023 -0.412901 -3.24656
upperneck -0.446119 -0.0501478 0.658879
head 2.39231 -0.0170733 0.780017
rclavicle -4.45029e-014 6.36111e-015
rhumerus -16.2395 36.165 -102.55
rradius 68.0849
rwrist -11.6447
rhand -37.7372 42.012
rfingers 7.12502
rthumb -10.7858 12.3089
lclavicle -4.45029e-014 6.36111e-015
lhumerus -17.7765 -20.252 105.075
lradius 83.0865
lwrist 27.1608
lhand -31.2403 21.0035
lfingers 7.12502
lthumb -4.51518 50.9354
rfemur -9.13886 7.14001 16.3122
rtibia 30.5512
rfoot -12.4996 -9.15484
rtoes -10.3524
lfemur -4.34458 -6.20083 -20.8505
ltibia 32.0628
lfoot -17.4291 6.22678
ltoes -5.83336
5
root 16.0076 17.556 1.60478 -5.77272 -17.6113 0.212376
lowerback 6.10825 0.697321 -3.4336
upperback 3.49556 0.739048 0.21014
thorax 0.133103 0.314519 2.09892
lowerneck -14.7113 -0.518522 -3.38567
upperneck -0.61372 -0.176862 0.947995
head 2.36031 -0.0686687 0.890364
rclavicle -1.15916e-014 4.17448e-015
rhumerus -15.8895 35.9033 -102.299
rradius 68.0486
rwrist -11.2874
rhand -37.605 42.3428
rfingers 7.12502
rthumb -10.6583 12.6331
lclavicle -1.15916e-014 4.17448e-015
lhumerus -17.5412 -20.4235 104.946
lradius 82.9684
lwrist 27.1253
lhand -31.4029 20.7177
lfingers 7.12502
lthumb -4.67219 50.6462
rfemur -9.30899 7.35371 16.0424
rtibia 30.554
rfoot -12.1857 -8.8575
rtoes -10.4459
lfemur -4.1173 -5.60741 -21.0519
ltibia 31.6565
lfoot -17.3017 6.11858
ltoes -5.72733
6
root 16.0606 17.5663 1.5878 -5.74039 -18.2448 -0.098963
lowerback 6.44593 0.754382 -3.2775
upperback 3.47125 0.809729 0.299138
thorax -0.0832288 0.354769 2.09501
lowerneck -14.5177 -0.587652 -3.29646
upperneck -0.866357 -0.292726 0.960785
head 2.24099 -0.124326 0.869038
rclavicle -1.35795e-014 -2.98177e-015
rhumerus -15.722 35.6605 -102.076
rradius 67.9599
rwrist -11.2392
rhand -37.7574 42.4831
rfingers 7.12502
rthumb -10.8053 12.781
lclavicle -1.35795e-014 -2.98177e-015
lhumerus -17.5335 -20.8464 104.933
lradius 82.7609
lwrist 26.9711
lhand -32.0662 19.3427
lfingers 7.12502
lthumb -5.31263 49.2562
rfemur -9.41045 7.66372 16.235
rtibia 30.3497
rfoot -11.8147 -8.69811
rtoes -10.2524
lfemur -3.9476 -5.08902 -20.7676
ltibia 31.3072
lfoot -17.2507 5.77771
ltoes -3.5085
7
root 16.1033 17.5827 1.56852 -5.47079 -18.9551 -0.377667
lowerback 6.49473 0.812559 -3.37229
upperback 3.42245 0.880041 0.441397
thorax -0.167988 0.389578 2.28938
lowerneck -14.3404 -0.507407 -3.32496
upperneck -1.14411 -0.195632 1.11279
head 2.11339 -0.0693054 0.927248
rclavicle 4.59068e-014 -6.95746e-015
rhumerus -15.7374 35.5535 -101.809
rradius 68.1655
rwrist -11.4305
rhand -37.5606 42.6664
rfingers 7.12502
rthumb -10.6155 12.9546
lclavicle 4.59068e-014 -6.95746e-015
lhumerus -17.4474 -21.1928 104.873
lradius 82.6987
lwrist 26.9488
lhand -32.6483 18.3622
lfingers 7.12502
lthumb -5.87471 48.2608
rfemur -9.64253 7.98872 16.4178
rtibia 29.9556
rfoot -11.3272 -8.60319
rtoes -9.93069
lfemur -4.06654 -4.40283 -20.4249
ltibia 31.067
lfoot -17.2069 5.48092
ltoes -1.6021
8
root 16.1417 17.5987 1.54322 -5.17433 -19.8061 -0.684113
lowerback 6.49775 0.927751 -3.46159
upperback 3.42896 1.02868 0.580045
thorax -0.176091 0.461551 2.47257
lowerneck -14.5129 -0.45078 -3.10412
upperneck -1.1642 -0.14891 1.00991
head 2.13482 -0.0498429 0.858419
rclavicle -4.38569e-015 7.95139e-015
rhumerus -15.754 35.3311 -101.507
rradius 68.3909
rwrist -11.1445
rhand -37.4402 43.0238
rfingers 7.12502
rthumb -10.4993 13.3061
lclavicle -4.38569e-015 7.95139e-015
lhumerus -17.279 -21.4572 104.773
lradius 82.6806
lwrist 27.0257
lhand -32.2771 18.8705
lfingers 7.12502
lthumb -5.51628 48.7787
rfemur -9.97095 8.30838 16.6601
rtibia 29.5476
rfoot -10.7686 -8.43767
rtoes -10.456
lfemur -4.24359 -3.46492 -20.0604
ltibia 30.8713
lfoot -16.9085 5.60518
ltoes -2.37867
9
root 16.1916 17.6061 1.52216 -5.22507 -20.8058 -0.558735
lowerback 6.65013 1.13328 -3.69643
upperback 3.51253 1.28196 0.525163
thorax -0.194542 0.584244 2.52898
lowerneck -14.679 -0.52987 -2.94994
upperneck -1.24348 -0.275173 0.997293
head 2.13982 -0.113066 0.819497
rclavicle -7.93399e-014 1.49089e-014
rhumerus -15.5787 35.133 -101.099
rradius 68.5248
rwrist -10.5153
rhand -38.0311 43.0175
rfingers 7.12502
rthumb -11.0693 13.3294
lclavicle -7.93399e-014 1.49089e-014
lhumerus -17.0153 -21.8826 104.62
lradius 82.4683
lwrist 27.1022
lhand -31.8995 18.9019
lfingers 7.12502
lthumb -5.1517 48.8193
rfemur -10.1348 8.5813 16.4263
rtibia 29.1469
rfoot -10.2577 -7.98628
rtoes -10.4343
lfemur -4.1769 -2.53257 -20.2625
ltibia 30.7276
lfoot -16.8195 5.97165
ltoes -3.20568
